<svg id="Capa_1" xmlns="http://www.w3.org/2000/svg" viewBox="0 0 126.4 151.7"><style>.st0{fill:#fff}</style><path class="st0" d="M66.7 11.8c-2.9 0-5 1-5 1-11.2 4.3-13 16.3-13 16.3-1.6 7.8-.3 12.8.6 15.5l.2.3v-.3c-.4-2-2.2-14.8 11-24.6 0 0 5.7-4.1 11.2-4.1 1.4 0 2.8.3 4.1 1-1.2-1-3.2-2.5-4.1-3.3-2.1-1.7-3.7-1.8-3.7-1.8h-1.3"/><path class="st0" d="M72 17.4c-.2.9-.8 2.8-4.8 5.1-.7.4-.9.4-1.4.7-.4.2-1.2.9-.3 1.9.4.5 4 3 6.2 4.6.3-.2.6-.5.7-.6l.1-.1c.9-.7 1.9-1.9 2.9-3.5 1.1-1.8 1.8-3.9.9-5.7.1 0-.7-2.2-4.3-2.4M63.3 25c0 .3-.3 5.4-1.1 9.3 0 .2-.1.5-.1 1.1.1.8.6 1.4.8 1.6.3.4 2.2 2 6.6 5.3 2 1.4 5.1 4.3 5.2 7.3 0 0 0 .6-.1.9 0 .3-.1.5-.1.5v.1-.1l.1-.1c.1-.2 2.7-5.5 3.2-6.6.3-.7 2.4-4-1.1-9 0 0-1.5-2.4-5.5-5.2-2-1.4-3.1-2-6.8-4 0 .1-1.1-.4-1.1-1.1z"/><path class="st0" d="M72.3 46.7l-.3-.6s-6 4.6-14 .7c0 0-6.3-2.9-7-10.1-.1.3-.1.6-.2.9-2.1 11 6 17.3 14.1 17.4 6.1.1 10.1-3.8 7.4-8.3m-36.1 22h4.3v-1.9h-4.3v-3.1h5.3v-1.8H34v11.8h7.8v-1.9h-5.6v-3.1zM88 67.4h-2.2v-3.7h1.9c1.7 0 2.2.7 2.2 1.8 0 1.2-.8 1.9-1.9 1.9m2.1 1.3c1.3-.5 2-1.8 2-3.3 0-1.6-.8-2.7-2-3.2-.5-.2-1.1-.3-2.4-.3h-4.1v11.8h2.2v-4.4h2.4l2.4 4.4H93l-2.5-4.4c-.3-.4-.4-.6-.4-.6m-63.6 3.2h-2.6v-3.4h2.6c1.1 0 1.8.7 1.8 1.7-.1.9-.7 1.7-1.8 1.7m-2.7-8.2h2.4c1 0 1.5.6 1.5 1.5s-.5 1.5-1.5 1.5h-2.4v-3zm4.7 3.8c.9-.5 1.5-1.5 1.5-2.6 0-1.9-1.6-3-3.7-3h-4.6v11.8h4.6c2.2 0 4.2-1.1 4.2-3.4 0-1.2-.7-2.4-2-2.8m19.2-5.6h-2.2v11.8h7.7v-1.9h-5.5v-9.9zm53 5.9h-2.3v-4h2.3c1.2 0 2 .8 2 2 .1 1.2-.7 2-2 2m.4-5.9h-4.9v11.8h2.2v-4.1h2.7c2.3 0 3.8-1.6 3.8-3.9.1-2.3-1.5-3.8-3.8-3.8m-40 10c-2.5 0-4.1-2-4.1-4.2s1.5-4.1 4.1-4.1c1.9 0 3.3 1.2 3.3 1.2l1-1.6s-1.5-1.6-4.5-1.6c-3.6 0-6.2 2.6-6.2 6 0 3.5 2.6 6.1 6.3 6.1 3.1 0 4.8-1.9 4.8-1.9l-1.2-1.5c0 .1-1.4 1.6-3.5 1.6m13 0c-2.2 0-4-1.8-4-4.2 0-2.3 1.8-4.1 4-4.1s4 1.7 4 4.1c0 2.4-1.8 4.2-4 4.2m0-10.2c-3.6 0-6.3 2.6-6.3 6 0 3.5 2.7 6.2 6.3 6.2 3.6 0 6.3-2.7 6.3-6.2 0-3.4-2.7-6-6.3-6m.5 74.6h1.7v-.9h-.7v-3.1h.7v-1h-1.7v5zm4.1-5H77v1h.7v3.1H77v.9h1.7v-5zm-28 6.8c0 .6-.2 1.1-.5 1.4-.3.3-.7.5-1.3.5h-.1c-.6 0-1-.2-1.3-.5-.3-.3-.5-.8-.5-1.4v-4c0-.6.2-1.1.5-1.4.3-.3.7-.5 1.3-.5h.2c.6 0 1 .2 1.3.5.3.3.5.8.5 1.4v.8h-1v-.8c0-.3-.1-.6-.2-.7-.1-.1-.3-.2-.5-.2s-.4.1-.5.2c-.1.1-.2.4-.2.7v3.9c0 .3.1.6.2.7.1.1.3.2.5.2s.4-.1.5-.2c.1-.1.2-.4.2-.7v-.9h1v1h-.1zm4.6-5.8l-1.8 9.4h-1.1l.5-2.5-1.6-6.9h1.1l1 5 .8-5h1.1zm.6 1v-1H59v1l-2 5.6h2.1v1h-3.2v-1l2.1-5.6h-2.1zm4 .8c0-.6.2-1.1.5-1.4.3-.3.8-.5 1.3-.5h.1c.6 0 1 .2 1.3.5.3.3.5.8.5 1.4v3.9c0 .6-.2 1.1-.5 1.4-.3.3-.8.5-1.3.5h-.1c-.6 0-1-.2-1.3-.5-.3-.3-.5-.8-.5-1.4v-3.9zm1.1 4c0 .3.1.6.2.7.1.1.3.2.5.2s.4-.1.5-.2c.2-.1.2-.4.2-.7v-4c0-.3-.1-.6-.2-.7-.1-.1-.3-.2-.5-.2s-.4.1-.5.2c-.1.1-.2.4-.2.7v4zm9.8-1.8v1.7c0 .3.1.6.2.7.1.1.3.2.5.2s.4-.1.5-.2c.1-.1.2-.4.2-.7v-.9h1.1v.9c0 .6-.2 1.1-.5 1.4-.3.3-.7.5-1.3.5h-.1c-.6 0-1-.2-1.3-.5-.3-.3-.5-.8-.5-1.4v-4c0-.6.2-1.1.5-1.4.3-.3.7-.5 1.3-.5h.1c.6 0 1 .2 1.3.5.3.3.5.8.5 1.4v2.2h-2.5v.1zm0-.9h1.5v-1.3c0-.3-.1-.6-.2-.7-.1-.1-.3-.2-.5-.2s-.4.1-.5.2c-.1.1-.2.4-.2.7v1.3h-.1zm-5.1-1.9v6.4h-1v-7.6h1.7l1.2 6.2v-6.2h1v7.6h-1.7l-1.2-6.4z"/><path transform="rotate(-39.159 50.293 88.115)" class="st0" d="M46.7 88h7.1v.2h-7.1z"/><path class="st0" d="M51.4 95.5c-.3.8-1 1.2-2 1.2-1.4 0-2.3-.8-2.5-2v-.3h6c0-.6-.1-1.1-.3-1.6-.5-1.2-1.7-2-3.3-2-2.2 0-3.7 1.4-3.7 3.5s1.5 3.4 3.6 3.4c1.7 0 2.9-.7 3.6-2.2h-1.4zM47 93.7c0-.1 0-.1 0 0 .1-.6.5-1.1.9-1.4 0 0 .1 0 .1-.1.1 0 .1-.1.2-.1s.1-.1.2-.1.1 0 .2-.1h.6c1.2 0 2.1.7 2.3 1.8v.4h-4.7c.1-.2.2-.3.2-.4zm21.7 0l3.1 3.9h-1.6l-2.5-3.2-.9.8v2.4h-1.3v-9.3h1.3v5.6L70 91h1.7l-.1.1zm-8.2-.6c-.1-1.5-1.3-2.3-3.3-2.3-1.7 0-2.9.8-2.9 2 0 1.1.7 1.7 2.2 1.9l1.2.2c.9.1 1.4.3 1.4.9 0 .6-.6.9-1.7.9s-1.9-.5-2.1-1.3H54c.2 1.4 1.4 2.3 3.4 2.3 1.8 0 3-.8 3-2 0-1.1-.7-1.7-2.4-1.9l-1.4-.2c-.8-.1-1.1-.4-1.1-.9 0-.6.6-.9 1.5-.9 1.2 0 1.8.4 2 1.3h1.5zm1.8-2.1h1.3v6.6h-1.3zm-.2-1.9c0 1.1 1.7 1.1 1.7 0s-1.7-1.1-1.7 0M78 91v1c-.5-.7-1.4-1.2-2.4-1.2-2 0-3.4 1.4-3.4 3.5s1.4 3.5 3.4 3.5c1 0 1.9-.5 2.4-1.2l.1 1h1.2V91H78zm0 3.4c0 1.1-.8 2.3-2.4 2.3-1.3 0-2.3-1-2.3-2.3 0-1.3.9-2.3 2.3-2.3.7 0 1.3.2 1.7.7.5.3.7.9.7 1.6zm-13.1 23.1v-3.3h4.5v-.7h-4.5v-1.9h5.7v-.8h-6.5v7.5h6.6v-.8zm-18.3.8v-7.5h.7v6.7h5.8v.8zm25.9 0v-7.5h.8v6.7h5.8v.8zm-20.2-7.5v1.5l.8.5v-2zm10.2 5.1c0-1.1-.7-1.9-1.6-2.3.3-.3.4-.7.4-1.1 0-.9-.8-1.7-1.7-1.7h-4.5v7.5h5c1.3 0 2.4-1.1 2.4-2.4zm-6.6-4.3h3.7c.5 0 .9.4.9.9s-.4.9-.9 1h-3.7v-1.9zm4.2 5.9h-4.2v-3.2h4.2c.9 0 1.6.7 1.6 1.6 0 .9-.7 1.6-1.6 1.6z"/></svg>